<svg id="Layer_1" data-name="Layer 1" xmlns="http://www.w3.org/2000/svg" viewBox="0 0 736.61 1931.89"><title>bird-logo</title><path d="M5.46,1394c.23-18.26-1.3,73.56-2.37,55.36-.12-2.08-.14-4.16-.26-6.24-.61-10.21-1.1-10.44-1.9-20.64a291.92,291.92,0,0,1-.06-39.79c1-16.64.67-33.24,0-49.88a559.53,559.53,0,0,1,.58-56.6,349.77,349.77,0,0,0-.17-37.9q-1.29-26.38.06-52.76c.28-5.75.12-11.52.14-17.27,0-5.12,0,169.76,0,164.64-.08-10.56,0-21.12-.3-31.66-.5-15-.81-30.08,0-45.1.54-10.72.59-21.42.33-32.14-.37-15.35-.64-30.7-1-46-.07-3.35-.32-6.71-.35-10.06-.25-22.72,0-45.43,1.77-68.1.76-9.89,1.52-19.77,2.41-29.65.88-9.72,1.56-19.45,1.56-29.22q0-55.44,0-110.87c0-7.19-.5-14.39-.85-21.57a121.77,121.77,0,0,1,.16-18.22c1.07-10.66,2.15-21.32,3-32,.44-5.42.56-10.87.58-16.31q.09-32.14,0-64.31c0-21.44,0-42.88-.28-64.32-.13-9.58-1-19.16-1.58-28.74-.17-3-.37-6.06-.45-9.1-.22-8.15-.54-16.31-.54-24.46,0-69.12-.08,81.76,0,12.65,0-9.75.8-19.49,1.3-29.23.4-7.67.89-15.33,1.37-23q.66-10.53,1.38-21.06.57-8.13,1.21-16.27c.92-12,2-23.91,2.74-35.88.57-8.94,1.08-17.89,1.12-26.84.17-38.72.05-57.44.29-96.16.07-11.5,1-23,1.52-34.5.3-6.39.68-12.78,1-19.16.61-11,1.27-22.05,1.81-33.07.29-5.91.41-11.83.55-17.75.23-9.43.31-18.87.66-28.3.25-6.7.77-13.41,1.28-20.1.39-4.94,3.43-25.22,10-49.48,8.63-32.07,29.45-62.92,45.43-92.1A233.32,233.32,0,0,1,99.15,87.92a165.84,165.84,0,0,1,45.31-39.55c27-16.13,55.46-29.08,85.81-37.66a224.21,224.21,0,0,1,39.52-7.5C281.88,2.05,294,1,306.13.29a219.82,219.82,0,0,1,30.68.64c6.54.52,13.09.82,19.63,1.29a198.88,198.88,0,0,1,63.63,15A132.91,132.91,0,0,1,478.82,65a241.89,241.89,0,0,1,26.71,51.38,466.18,466.18,0,0,1,19.26,63.76c2.44,10.76,5,21.5,7,32.33,1.52,8,2.46,16.11,3.49,24.2,1.51,11.74,7.6,32.42,8.65,37.92,1.85,9.62,8.32,42.35,8.72,52.11.31,7.82.87,15.64,1.38,23.46.44,6.7,1.13,13.39,1.43,20.1.51,11.34.69,22.7,1.22,34,.58,12.5,2.13,4.84,6.46,16.71,5.78,15.83,14.76,29.41,28,40a158,158,0,0,0,15.55,11.22c24.88,15.4,50,30.42,76.4,43.12,12.1,5.81,24.46,11.08,36.64,16.71,3.62,1.68,7.09,3.68,10.53,5.69a14.43,14.43,0,0,1,5,5.08,7.33,7.33,0,0,1-.37,8.94,12.68,12.68,0,0,1-5.13,4.23,85.92,85.92,0,0,1-9.34,3.7c-7.78,2.42-15.61,4.67-23.44,6.93a144,144,0,0,0-28.08,11c-13,6.93-26.6,12.5-40.29,17.88-7.62,3-44.75,16.9-51.68,21.24-20,12.52-27.44,20.84-28.52,36.64a218.31,218.31,0,0,0,.11,30.69c.56,7.66,1,15.33,1.28,23,.65,15.5,1.13,31,1.79,46.5.37,8.63,1.1,17.24,1.43,25.87.37,9.27.78,18.55.6,27.81-.24,12.15-1.08,24.29-1.59,36.43-.21,5.11-.24,10.23-.35,15.35-.32,13.91-.44,27.83-1,41.73-.38,9.26-1.44,18.5-2.16,27.75-1.22,15.78-2.39,31.57-3.63,47.36-.74,9.41-1.64,18.8-2.3,28.22-.41,5.74-.66,11.5-.67,17.25-.06,37.6-.15,75.2.05,112.8,0,10.38,1,20.76,1.59,31.14.41,7.67,1,15.33,1.16,23,.2,10.39.07,20.8,0,31.2,0,16.8.72,33.57,1.89,50.34.56,8,1,16,1.16,24,.26,13.45,1.73,26.81,2.58,40.22.36,5.58.5-168.82.63-163.22.27,11,.6,22.07.63,33.1,0,8.47-.39,16.94-.58,25.42-.13,5.92-.31,11.83-.32,17.75q0,39.12,0,78.24c0,11.37.67,22.7,1.64,34,.48,5.58.76,11.17,1.19,16.75.88,11.48,4.31,43.89,2.87,60.78-1.54,18-3.13,36-4.33,54.05-.79,11.8-1.1,23.65-1.32,35.48-.18,9.91,0,19.84.17,29.75.1,5,.44,9.92,1,14.84,1.56,14.33,1.67,28.74,2.64,43.1.11,1.76.12,3.52.06,5.28a15.47,15.47,0,0,1-.41,3.32c-1.57,6.29-6,8.53-12,6a50.1,50.1,0,0,1-6.37-3.33,31.05,31.05,0,0,0-10.8-3.77,6.91,6.91,0,0,0-5.45,1.13,22.25,22.25,0,0,0-7.23,7.56c-1.21,2.26-2.33,4.56-3.64,6.76a34.3,34.3,0,0,1-4,5.92c-4.08,4.37-9.06,5.82-14.82,3.69a28.43,28.43,0,0,1-7.82-4.61,75,75,0,0,1-10.64-11c-2-2.47-4.06-5-6.15-7.37a24.32,24.32,0,0,0-11.19-7.12,7.5,7.5,0,0,0-6.86.91,18.78,18.78,0,0,0-7.58,9,95.9,95.9,0,0,0-3.06,10.08c-1.37,5.59-2.46,11.25-3.78,16.85a38.86,38.86,0,0,1-2.17,6.84,22.2,22.2,0,0,1-3.52,5.66c-2.73,3.07-6.23,4.42-10.37,3.18-2-.59-4-1.2-5.9-2a41.76,41.76,0,0,0-10.27-2.26,7.26,7.26,0,0,0-6.45,2.44c-4,4.08-5.79,9.15-6.47,14.64q-1.11,8.8-1.81,17.66c-.43,5.58-.54,11.18-.9,16.77-.51,8.14-1.11,16.27-1.7,24.41-.35,4.78-.74,9.57-1.14,14.35-.88,10.52-1.86,21-2.63,31.56a78.63,78.63,0,0,0,1.24,22.44,29.1,29.1,0,0,0,15,20.1,63.45,63.45,0,0,0,14.17,5.78c9.4,2.59,18.79,5.22,28.27,7.48a202.25,202.25,0,0,1,28.23,9.19c11.71,4.71,23.47,9.3,35.16,14.06,4.14,1.68,8.19,3.61,12.19,5.6a23.36,23.36,0,0,1,7.51,5.89c5.2,6.21,2.85,12.66-5.17,14a15.31,15.31,0,0,1-5.23-.08,61.49,61.49,0,0,1-8.35-2.11c-19.09-6.39-38.23-12.65-57.21-19.36a296.15,296.15,0,0,0-41.5-11.63c-5.95-1.17-11.86-2.6-17.81-3.8-12.71-2.56-20.23-10.45-23-22.83a157.22,157.22,0,0,1-2.93-18.46c-.61-5.71-.73-11.49-.84-17.24-.14-6.72-.2-13.44,0-20.15a239.41,239.41,0,0,1,2.11-24.36c1.21-9.36,2.6-18.7,2.3-28.18-.06-2.08,0-4.17-.23-6.24a104.42,104.42,0,0,1,.41-23c1.31-11.27,2.61-22.57,3.32-33.89a190.92,190.92,0,0,1,5.56-33.54c.42-1.71.82-3.42,1.23-5.13a33.36,33.36,0,0,0-.54-18,10.33,10.33,0,0,0-3.16-5.25,5,5,0,0,0-6.6,0,11.18,11.18,0,0,0-2.21,2.5c-3.18,5-5.62,10.37-6.35,16.4-.49,4-1.21,7.9-2,11.82-1.34,6.84-3.8,13.23-8.24,18.69a26.93,26.93,0,0,1-5.14,5c-4,2.87-7.68,2.73-11.39-.51a31,31,0,0,1-5.27-6.15c-1.95-2.92-3.5-6.1-5.24-9.16s-3.6-6.41-5.51-9.55a22.17,22.17,0,0,0-5.76-6.37,15.21,15.21,0,0,0-21.12,2.29,21.37,21.37,0,0,0-3.16,4.79c-1.76,3.76-3.39,7.59-4.87,11.46-2.63,6.87-5.07,13.81-7.65,20.69a41.3,41.3,0,0,1-5.4,10.13,19.78,19.78,0,0,1-5.53,5.26,12.55,12.55,0,0,1-9.64,1.81c-2.65-.61-5.3-1.18-8-1.68-1.41-.26-2.86-.35-4.29-.5-5.6-.58-9.48,2.18-12.45,6.55a24.85,24.85,0,0,0-3.75,10.29q-.94,6.16-1.51,12.38c-1.43,15.45-2.8,30.9-2.67,46.45q.14,15.59,0,31.19c-.13,13.91-.29,27.82-.68,41.73-.18,6.55-1,13.08-1.35,19.63a57.59,57.59,0,0,0,.16,9.56c.9,8.24,4.95,14.75,11.55,19.69a48.08,48.08,0,0,0,16.33,7.83c3.55,1,7.12,1.86,10.71,2.64a115.08,115.08,0,0,1,24.87,8.58l15.19,7.13a118.78,118.78,0,0,0,20.72,7.45c8.19,2.14,16.37,4.35,24.5,6.71a62.71,62.71,0,0,1,8.91,3.47,12.5,12.5,0,0,1,5.59,5.11c1.59,2.76,1.32,5.29-1.12,7.32a14.78,14.78,0,0,1-4.59,2.44,20,20,0,0,1-9.5.53,223,223,0,0,1-32.37-6.69c-13-3.84-26-7.91-38.9-12.11A207.46,207.46,0,0,1,234.33,1899c-4.68-2.45-9.36-4.87-14-7.36a102,102,0,0,1-14.13-9c-8.41-6.46-12.65-15.09-13.4-25.51-.41-5.74-.62-11.5-.7-17.25-.11-8.16,0-16.32,0-24.48-.13-11.85.48-23.66,1.24-35.48.42-6.54.23-13.11.5-19.66.41-9.59,1-19.17,1.51-28.74.32-6.07.74-12.14,1-18.21a36,36,0,0,0-8.45-24.87c-1.11-1.36-2.15-2.78-3.33-4.09-7.86-8.76-13.87-18.74-19.19-29.18-1.67-3.28-3.48-6.48-5.24-9.7-2.41-4.4-6.32-7.15-10.59-9.44a6,6,0,0,0-7.15.86c-3.36,2.79-6.29,6-7.85,10.12-.84,2.24-1.61,4.52-2.26,6.82q-7.65,26.74-15.26,53.49a62.16,62.16,0,0,1-2.86,8.13,16.88,16.88,0,0,1-3.23,4.68,3.25,3.25,0,0,1-5.08.09,15,15,0,0,1-3.16-4.16,59.54,59.54,0,0,1-3.14-8A342,342,0,0,1,90,1669.81a76.43,76.43,0,0,0-2.35-8.79,21.07,21.07,0,0,0-6.43-9.38,7.93,7.93,0,0,0-7.51-2,33.57,33.57,0,0,0-9.42,3.41c-2.21,1.28-4.55,2.34-6.87,3.41-3.92,1.8-7.49.85-10.79-1.6a19,19,0,0,1-5.62-6.48,106.78,106.78,0,0,1-4.87-10.4c-3.5-9-5.66-18.33-7.58-27.73-4.2-20.51-8.31-41-12.47-61.57-1.71-8.46-3.63-16.88-5.16-25.38a114.15,114.15,0,0,1-1.66-14.76c-.8-16.93-2.1-33.84-3.21-50.75-.46-7.18-.55-14.39-.6-21.58C5.4,1422.11,5.46,1408,5.46,1394ZM316.6,732c0-8.85.21-18.29-.1-27.71a65.25,65.25,0,0,0-2.08-12.74,18.35,18.35,0,0,0-8.33-11.32,7.91,7.91,0,0,0-10.16.63,17.31,17.31,0,0,0-6,9.08,61.83,61.83,0,0,0-1.44,9c-.82,9.42,0,18.85.23,28.28.22,9.77.3,19.53-1.3,29.19-1.86,11.36-3.75,22.72-6,34a241.18,241.18,0,0,0-4.93,51c.06,3.52.33,7,.35,10.54.09,13.12-.52,26.21-1.46,39.3-1.06,14.69-2.69,29.3-4.56,43.89-1.45,11.27-2.92,22.53-2.4,33.93.08,1.6.06,3.2.11,4.8.28,8,.6,16,.85,24,.55,17.46-1,34.85-2.25,52.23a321.31,321.31,0,0,0-.08,44.1c.17,2.87.42,5.75.51,8.62.43,13.11,1,26.21,1.17,39.32.11,7.19-.13,14.4-.58,21.58-.7,11.17-1.86,22.31-2.55,33.49a186.46,186.46,0,0,1-7.19,41c-2.82,9.69-6.82,18.94-10.52,28.3-2.93,7.43-5.94,14.84-8.63,22.36a52.78,52.78,0,0,0-3.34,20.7,23.09,23.09,0,0,0,2.37,9.21,13,13,0,0,0,10.5,7.42,20.24,20.24,0,0,0,13.83-2.76,94.36,94.36,0,0,0,7.74-5.64c2.66-2,5.18-4.28,7.87-6.29a15.3,15.3,0,0,1,16.28-1.89c2.63,1.16,5.25,2.35,7.84,3.61a24.32,24.32,0,0,0,12.13,2.21,15.18,15.18,0,0,0,11.53-6,19,19,0,0,0,3.84-7.67,72.7,72.7,0,0,0,1.95-11.31,174.49,174.49,0,0,0-2.42-41.57c-1.91-10.86-3.48-21.77-4.54-32.76-.89-9.23-1.83-18.47-3.26-27.62-1.56-9.94-3.56-19.82-5.64-29.67-2.39-11.34-3.71-22.68-2.65-34.29.73-8,1-16,1.28-24,.2-5.59-.05-11.2.17-16.79.59-14.39.86-28.78.73-43.18-.16-17.46,1.2-34.85,2.39-52.24.73-10.69,1.38-21.38,1.48-32.1.12-13.76-.32-27.51-.89-41.25a256.66,256.66,0,0,1,.65-34.52q1.15-12.41,1.93-24.87c.45-7,.74-14.05.93-21.08.24-8.65-.75-17.25-1.45-25.85-1.14-13.87-2.16-27.75-3.31-41.61C316.3,755.56,315.49,744.08,316.6,732ZM409,320.89a43.16,43.16,0,1,0-43.16,43.39A43.08,43.08,0,0,0,409,320.89Z" transform="translate(0 0)"/></svg>