<?xml version="1.0" encoding="UTF-8"?>
<svg width="25px" height="25px" viewBox="0 0 25 25" version="1.1" xmlns="http://www.w3.org/2000/svg" xmlns:xlink="http://www.w3.org/1999/xlink">
    <!-- Generator: Sketch 48.2 (47327) - http://www.bohemiancoding.com/sketch -->
    <title>insta</title>
    <desc>Created with Sketch.</desc>
    <defs></defs>
    <g id="global/footer/desktop" stroke="none" stroke-width="1" fill="none" fill-rule="evenodd" transform="translate(-731.000000, -3.000000)">
        <g id="social" transform="translate(525.000000, 0.000000)" fill="#000000">
            <g id="insta" transform="translate(206.000000, 3.000000)">
                <path d="M12.4713119,0.049509901 C9.08433168,0.049509901 8.65957921,0.0638663366 7.32943069,0.124559406 C6.00195545,0.18510396 5.09542079,0.395945545 4.30210396,0.704262376 C3.48205446,1.02292574 2.7865099,1.44936139 2.09319307,2.14267822 C1.39987624,2.83604455 0.973440594,3.5315396 0.654727723,4.35163861 C0.346410891,5.14490594 0.135618812,6.0514901 0.0750247525,7.37891584 C0.0143316832,8.70911386 2.47524752e-05,9.13376733 2.47524752e-05,12.520797 C2.47524752e-05,15.9078267 0.0143316832,16.3325297 0.0750247525,17.6627277 C0.135618812,18.9901535 0.346410891,19.8967376 0.654727723,20.690005 C0.973440594,21.5100545 1.39987624,22.205599 2.09319307,22.8989653 C2.7865099,23.5922822 3.48205446,24.0186683 4.30210396,24.3374307 C5.09542079,24.645698 6.00195545,24.8565396 7.32943069,24.9171337 C8.65957921,24.9777772 9.08433168,24.9921337 12.4713119,24.9921337 C15.8583416,24.9921337 16.282995,24.9777772 17.6131931,24.9171337 C18.9406683,24.8565396 19.847203,24.645698 20.6405198,24.3374307 C21.4606188,24.0186683 22.1561139,23.5922822 22.8494307,22.8989653 C23.542797,22.205599 23.9691832,21.510104 24.287896,20.690005 C24.5962129,19.8967376 24.8070545,18.9901535 24.8675495,17.6627277 C24.9282921,16.3325297 24.9426485,15.9078267 24.9426485,12.520797 C24.9426485,9.13381683 24.9282921,8.70911386 24.8675495,7.37891584 C24.8070545,6.0514901 24.5962129,5.14490594 24.287896,4.35163861 C23.9691832,3.5315396 23.542797,2.83604455 22.8494307,2.14267822 C22.1561139,1.44936139 21.4606188,1.02292574 20.6405198,0.704262376 C19.847203,0.395945545 18.9406683,0.18510396 17.6131931,0.124559406 C16.282995,0.0638663366 15.8583416,0.049509901 12.4713119,0.049509901 M12.4713119,2.29658911 C15.8013119,2.29658911 16.1957178,2.30926238 17.5107673,2.36926238 C18.7267079,2.42475743 19.3870545,2.62792574 19.8265099,2.79871782 C20.4086386,3.02495545 20.8241337,3.29520297 21.2605198,3.73158911 C21.6969059,4.16802475 21.9671535,4.5834703 22.1934406,5.16559901 C22.3641832,5.60505446 22.5673515,6.2654505 22.6228465,7.48134158 C22.682797,8.79639109 22.6955198,9.19084653 22.6955198,12.520797 C22.6955198,15.850797 22.682797,16.2452525 22.6228465,17.5602525 C22.5673515,18.7762426 22.3641832,19.4365891 22.1934406,19.8760446 C21.9671535,20.4581238 21.6969059,20.8736188 21.2605198,21.310005 C20.8241337,21.7464406 20.4086386,22.0166881 19.8265099,22.2429257 C19.3870545,22.4136683 18.7267079,22.6168861 17.5107673,22.6723317 C16.1959158,22.7323317 15.8015594,22.7450545 12.4713119,22.7450545 C9.14106436,22.7450545 8.74670792,22.7323317 7.43185644,22.6723317 C6.21591584,22.6168861 5.5555198,22.4136683 5.11606436,22.2429257 C4.53398515,22.0166881 4.1184901,21.7464406 3.68215347,21.310005 C3.24571782,20.8736188 2.97542079,20.4581238 2.74918317,19.8760446 C2.57844059,19.4365891 2.37527228,18.7762426 2.31977723,17.560302 C2.25977723,16.2452525 2.24710396,15.850797 2.24710396,12.520797 C2.24710396,9.19084653 2.25977723,8.79639109 2.31977723,7.48134158 C2.37527228,6.2654505 2.57844059,5.60505446 2.74918317,5.16559901 C2.97542079,4.5834703 3.24571782,4.16802475 3.68210396,3.73163861 C4.1184901,3.29520297 4.53398515,3.02495545 5.11606436,2.79871782 C5.5555198,2.62792574 6.21591584,2.42475743 7.43180693,2.36926238 C8.74690594,2.30926238 9.14131188,2.29658911 12.4713119,2.29658911" id="Fill-1"></path>
                <path d="M12.4713119,16.6779257 C10.1754208,16.6779257 8.31418317,14.8166881 8.31418317,12.520797 C8.31418317,10.2249059 10.1754208,8.36371782 12.4713119,8.36371782 C14.767203,8.36371782 16.6284406,10.2249059 16.6284406,12.520797 C16.6284406,14.8166881 14.767203,16.6779257 12.4713119,16.6779257 M12.4713119,6.11663861 C8.93438119,6.11663861 6.06710396,8.98386634 6.06710396,12.520797 C6.06710396,16.0577772 8.93438119,18.925005 12.4713119,18.925005 C16.0082426,18.925005 18.8754703,16.0577772 18.8754703,12.520797 C18.8754703,8.98386634 16.0082426,6.11663861 12.4713119,6.11663861" id="Fill-4"></path>
                <path d="M20.6250792,5.86360891 C20.6250792,6.69014356 19.9550792,7.36014356 19.1285446,7.36014356 C18.3020099,7.36014356 17.6319604,6.69014356 17.6319604,5.86360891 C17.6319604,5.03707426 18.3020099,4.36702475 19.1285446,4.36702475 C19.9550792,4.36702475 20.6250792,5.03707426 20.6250792,5.86360891" id="Fill-6"></path>
            </g>
        </g>
    </g>
</svg>