<?xml version="1.0" encoding="UTF-8"?>
<svg width="27px" height="22px" viewBox="0 0 27 22" version="1.1" xmlns="http://www.w3.org/2000/svg" xmlns:xlink="http://www.w3.org/1999/xlink">
    <!-- Generator: Sketch 48.2 (47327) - http://www.bohemiancoding.com/sketch -->
    <title>twitter</title>
    <desc>Created with Sketch.</desc>
    <defs></defs>
    <g id="global/footer/desktop" stroke="none" stroke-width="1" fill="none" fill-rule="evenodd" transform="translate(-657.000000, -4.000000)">
        <g id="social" transform="translate(525.000000, 0.000000)" fill="#111111">
            <path d="M158.504899,6.60367139 C157.529783,7.03623133 156.481647,7.32844784 155.381826,7.45991213 C156.504309,6.78695276 157.366646,5.72132332 157.772701,4.45147363 C156.721914,5.07460379 155.558216,5.52717494 154.31951,5.77102 C153.327697,4.71413717 151.914455,4.05390015 150.350401,4.05390015 C147.347396,4.05390015 144.912524,6.4885076 144.912524,9.4915126 C144.912524,9.91771137 144.96063,10.3327781 145.053397,10.7307491 C140.534047,10.5039997 136.527169,8.33907962 133.845271,5.04915909 C133.377195,5.85225752 133.108965,6.78629014 133.108965,7.78287432 C133.108965,9.669493 134.068972,11.3338681 135.528067,12.3091158 C134.636707,12.2807556 133.798225,12.0362479 133.065099,11.6288676 C133.064569,11.6516618 133.064569,11.6743235 133.064569,11.6973828 C133.064569,14.3319697 134.938996,16.5296234 137.426613,17.0293732 C136.970331,17.1535487 136.48993,17.220076 135.994023,17.220076 C135.643628,17.220076 135.302908,17.1860172 134.970802,17.1225379 C135.662844,19.2828197 137.670988,20.8550903 140.050598,20.8988233 C138.189556,22.3573879 135.844933,23.2267486 133.29715,23.2267486 C132.858229,23.2267486 132.425404,23.2009063 132,23.150547 C134.406512,24.6935297 137.264801,25.5939011 140.335658,25.5939011 C150.337679,25.5939011 155.807362,17.3078072 155.807362,10.1220641 C155.807362,9.88630307 155.801929,9.65173472 155.79146,9.41849161 C156.854041,8.65183742 157.775881,7.69421544 158.504899,6.60367139" id="twitter"></path>
        </g>
    </g>
</svg>